<svg xmlns="http://www.w3.org/2000/svg" xmlns:xlink="http://www.w3.org/1999/xlink" width="500" zoomAndPan="magnify" viewBox="0 0 375 374.999991" height="500" preserveAspectRatio="xMidYMid meet" version="1.2"><defs/><g id="df4cdb7bbf"><g style="fill:#ffffff;fill-opacity:1;"><g transform="translate(0.0462533, 204.411212)"><path style="stroke:none" d="M 19.890625 0.765625 L 18.953125 0.765625 C 18.015625 0.765625 17.101562 0.6875 16.21875 0.53125 C 15.332031 0.382812 14.378906 0.0976562 13.359375 -0.328125 C 12.347656 -0.753906 11.40625 -1.300781 10.53125 -1.96875 C 9.65625 -2.644531 8.804688 -3.546875 7.984375 -4.671875 C 7.160156 -5.804688 6.457031 -7.101562 5.875 -8.5625 C 5.289062 -10.03125 4.828125 -11.816406 4.484375 -13.921875 C 4.140625 -16.023438 3.96875 -18.34375 3.96875 -20.875 L 3.96875 -22.765625 C 3.96875 -36.578125 8.953125 -43.484375 18.921875 -43.484375 L 19.890625 -43.484375 C 23.265625 -43.484375 26.117188 -42.679688 28.453125 -41.078125 C 30.796875 -39.484375 32.5 -37.050781 33.5625 -33.78125 L 27.453125 -31.828125 C 26.867188 -33.671875 25.976562 -35.003906 24.78125 -35.828125 C 23.59375 -36.648438 21.960938 -37.0625 19.890625 -37.0625 L 18.921875 -37.0625 C 15.972656 -37.0625 13.8125 -35.988281 12.4375 -33.84375 C 11.0625 -31.695312 10.375 -28.003906 10.375 -22.765625 L 10.375 -20.875 C 10.375 -10.71875 13.234375 -5.640625 18.953125 -5.640625 L 19.890625 -5.640625 C 21.597656 -5.640625 23.035156 -6.050781 24.203125 -6.875 C 25.378906 -7.695312 26.3125 -9.097656 27 -11.078125 L 33.046875 -9 C 31.960938 -5.90625 30.320312 -3.503906 28.125 -1.796875 C 25.925781 -0.0859375 23.179688 0.765625 19.890625 0.765625 Z M 19.890625 0.765625 "/></g></g><g style="fill:#ffffff;fill-opacity:1;"><g transform="translate(37.535951, 204.411212)"><path style="stroke:none" d="M 19.0625 -37.0625 L 18.546875 -37.0625 C 16.578125 -37.0625 15.007812 -36.625 13.84375 -35.75 C 12.6875 -34.882812 11.816406 -33.398438 11.234375 -31.296875 C 10.660156 -29.203125 10.375 -26.359375 10.375 -22.765625 L 10.375 -20.875 C 10.375 -15.75 11.039062 -11.925781 12.375 -9.40625 C 13.707031 -6.894531 15.773438 -5.640625 18.578125 -5.640625 L 19.0625 -5.640625 C 21.851562 -5.660156 23.894531 -6.914062 25.1875 -9.40625 C 26.476562 -11.90625 27.125 -15.726562 27.125 -20.875 L 27.125 -22.828125 C 27.125 -26.421875 26.847656 -29.253906 26.296875 -31.328125 C 25.742188 -33.410156 24.894531 -34.882812 23.75 -35.75 C 22.601562 -36.625 21.039062 -37.0625 19.0625 -37.0625 Z M 33.53125 -22.828125 L 33.53125 -20.875 C 33.53125 -18.269531 33.363281 -15.894531 33.03125 -13.75 C 32.695312 -11.601562 32.25 -9.796875 31.6875 -8.328125 C 31.125 -6.859375 30.441406 -5.566406 29.640625 -4.453125 C 28.835938 -3.335938 28.023438 -2.457031 27.203125 -1.8125 C 26.378906 -1.175781 25.46875 -0.65625 24.46875 -0.25 C 23.46875 0.15625 22.546875 0.425781 21.703125 0.5625 C 20.859375 0.695312 19.976562 0.765625 19.0625 0.765625 L 18.578125 0.765625 C 17.660156 0.765625 16.773438 0.695312 15.921875 0.5625 C 15.066406 0.425781 14.132812 0.15625 13.125 -0.25 C 12.125 -0.65625 11.203125 -1.179688 10.359375 -1.828125 C 9.515625 -2.484375 8.691406 -3.367188 7.890625 -4.484375 C 7.085938 -5.597656 6.40625 -6.890625 5.84375 -8.359375 C 5.28125 -9.828125 4.828125 -11.628906 4.484375 -13.765625 C 4.140625 -15.898438 3.96875 -18.269531 3.96875 -20.875 L 3.96875 -22.765625 C 3.96875 -24.671875 4.046875 -26.425781 4.203125 -28.03125 C 4.367188 -29.644531 4.648438 -31.265625 5.046875 -32.890625 C 5.441406 -34.515625 6 -35.941406 6.71875 -37.171875 C 7.445312 -38.398438 8.332031 -39.503906 9.375 -40.484375 C 10.425781 -41.460938 11.722656 -42.207031 13.265625 -42.71875 C 14.816406 -43.226562 16.578125 -43.484375 18.546875 -43.484375 L 19.0625 -43.484375 C 21.039062 -43.484375 22.804688 -43.222656 24.359375 -42.703125 C 25.921875 -42.179688 27.21875 -41.429688 28.25 -40.453125 C 29.289062 -39.472656 30.164062 -38.367188 30.875 -37.140625 C 31.582031 -35.910156 32.125 -34.484375 32.5 -32.859375 C 32.882812 -31.234375 33.148438 -29.628906 33.296875 -28.046875 C 33.453125 -26.472656 33.53125 -24.734375 33.53125 -22.828125 Z M 33.53125 -22.828125 "/></g></g><g style="fill:#ffffff;fill-opacity:1;"><g transform="translate(75.025649, 204.411212)"><path style="stroke:none" d="M 10.375 -6.4375 L 33.53125 -6.4375 L 33.53125 0 L 3.96875 0 L 3.96875 -42.71875 L 10.375 -42.71875 Z M 10.375 -6.4375 "/></g></g><g style="fill:#ffffff;fill-opacity:1;"><g transform="translate(112.515347, 204.411212)"><path style="stroke:none" d="M 10.375 -6.4375 L 33.53125 -6.4375 L 33.53125 0 L 3.96875 0 L 3.96875 -42.71875 L 10.375 -42.71875 Z M 10.375 -6.4375 "/></g></g><g style="fill:#ffffff;fill-opacity:1;"><g transform="translate(150.005044, 204.411212)"><path style="stroke:none" d="M 10.375 -20.234375 L 10.375 -6.4375 L 33.53125 -6.4375 L 33.53125 0 L 3.96875 0 L 3.96875 -42.71875 L 33.53125 -42.71875 L 33.53125 -36.3125 L 10.375 -36.3125 L 10.375 -26.640625 L 28.625 -26.640625 L 28.625 -20.234375 Z M 10.375 -20.234375 "/></g></g><g style="fill:#ffffff;fill-opacity:1;"><g transform="translate(187.494742, 204.411212)"><path style="stroke:none" d="M 19.890625 0.765625 L 18.953125 0.765625 C 18.015625 0.765625 17.101562 0.6875 16.21875 0.53125 C 15.332031 0.382812 14.378906 0.0976562 13.359375 -0.328125 C 12.347656 -0.753906 11.40625 -1.300781 10.53125 -1.96875 C 9.65625 -2.644531 8.804688 -3.546875 7.984375 -4.671875 C 7.160156 -5.804688 6.457031 -7.101562 5.875 -8.5625 C 5.289062 -10.03125 4.828125 -11.816406 4.484375 -13.921875 C 4.140625 -16.023438 3.96875 -18.34375 3.96875 -20.875 L 3.96875 -22.765625 C 3.96875 -36.578125 8.953125 -43.484375 18.921875 -43.484375 L 19.890625 -43.484375 C 23.265625 -43.484375 26.117188 -42.679688 28.453125 -41.078125 C 30.796875 -39.484375 32.5 -37.050781 33.5625 -33.78125 L 27.453125 -31.828125 C 26.867188 -33.671875 25.976562 -35.003906 24.78125 -35.828125 C 23.59375 -36.648438 21.960938 -37.0625 19.890625 -37.0625 L 18.921875 -37.0625 C 15.972656 -37.0625 13.8125 -35.988281 12.4375 -33.84375 C 11.0625 -31.695312 10.375 -28.003906 10.375 -22.765625 L 10.375 -20.875 C 10.375 -10.71875 13.234375 -5.640625 18.953125 -5.640625 L 19.890625 -5.640625 C 21.597656 -5.640625 23.035156 -6.050781 24.203125 -6.875 C 25.378906 -7.695312 26.3125 -9.097656 27 -11.078125 L 33.046875 -9 C 31.960938 -5.90625 30.320312 -3.503906 28.125 -1.796875 C 25.925781 -0.0859375 23.179688 0.765625 19.890625 0.765625 Z M 19.890625 0.765625 "/></g></g><g style="fill:#ffffff;fill-opacity:1;"><g transform="translate(224.98444, 204.411212)"><path style="stroke:none" d="M 33.53125 -42.71875 L 33.53125 -36.3125 L 22 -36.3125 L 22 0 L 15.59375 0 L 15.59375 -36.3125 L 3.96875 -36.3125 L 3.96875 -42.71875 Z M 33.53125 -42.71875 "/></g></g><g style="fill:#ffffff;fill-opacity:1;"><g transform="translate(262.474138, 204.411212)"><path style="stroke:none" d="M 30.484375 -42.71875 L 30.484375 -36.3125 L 22 -36.3125 L 22 -6.40625 L 30.484375 -6.40625 L 30.484375 0 L 7.015625 0 L 7.015625 -6.40625 L 15.59375 -6.40625 L 15.59375 -36.3125 L 7.015625 -36.3125 L 7.015625 -42.71875 Z M 30.484375 -42.71875 "/></g></g><g style="fill:#ffffff;fill-opacity:1;"><g transform="translate(299.963836, 204.411212)"><path style="stroke:none" d="M 19.0625 -37.0625 L 18.546875 -37.0625 C 16.578125 -37.0625 15.007812 -36.625 13.84375 -35.75 C 12.6875 -34.882812 11.816406 -33.398438 11.234375 -31.296875 C 10.660156 -29.203125 10.375 -26.359375 10.375 -22.765625 L 10.375 -20.875 C 10.375 -15.75 11.039062 -11.925781 12.375 -9.40625 C 13.707031 -6.894531 15.773438 -5.640625 18.578125 -5.640625 L 19.0625 -5.640625 C 21.851562 -5.660156 23.894531 -6.914062 25.1875 -9.40625 C 26.476562 -11.90625 27.125 -15.726562 27.125 -20.875 L 27.125 -22.828125 C 27.125 -26.421875 26.847656 -29.253906 26.296875 -31.328125 C 25.742188 -33.410156 24.894531 -34.882812 23.75 -35.75 C 22.601562 -36.625 21.039062 -37.0625 19.0625 -37.0625 Z M 33.53125 -22.828125 L 33.53125 -20.875 C 33.53125 -18.269531 33.363281 -15.894531 33.03125 -13.75 C 32.695312 -11.601562 32.25 -9.796875 31.6875 -8.328125 C 31.125 -6.859375 30.441406 -5.566406 29.640625 -4.453125 C 28.835938 -3.335938 28.023438 -2.457031 27.203125 -1.8125 C 26.378906 -1.175781 25.46875 -0.65625 24.46875 -0.25 C 23.46875 0.15625 22.546875 0.425781 21.703125 0.5625 C 20.859375 0.695312 19.976562 0.765625 19.0625 0.765625 L 18.578125 0.765625 C 17.660156 0.765625 16.773438 0.695312 15.921875 0.5625 C 15.066406 0.425781 14.132812 0.15625 13.125 -0.25 C 12.125 -0.65625 11.203125 -1.179688 10.359375 -1.828125 C 9.515625 -2.484375 8.691406 -3.367188 7.890625 -4.484375 C 7.085938 -5.597656 6.40625 -6.890625 5.84375 -8.359375 C 5.28125 -9.828125 4.828125 -11.628906 4.484375 -13.765625 C 4.140625 -15.898438 3.96875 -18.269531 3.96875 -20.875 L 3.96875 -22.765625 C 3.96875 -24.671875 4.046875 -26.425781 4.203125 -28.03125 C 4.367188 -29.644531 4.648438 -31.265625 5.046875 -32.890625 C 5.441406 -34.515625 6 -35.941406 6.71875 -37.171875 C 7.445312 -38.398438 8.332031 -39.503906 9.375 -40.484375 C 10.425781 -41.460938 11.722656 -42.207031 13.265625 -42.71875 C 14.816406 -43.226562 16.578125 -43.484375 18.546875 -43.484375 L 19.0625 -43.484375 C 21.039062 -43.484375 22.804688 -43.222656 24.359375 -42.703125 C 25.921875 -42.179688 27.21875 -41.429688 28.25 -40.453125 C 29.289062 -39.472656 30.164062 -38.367188 30.875 -37.140625 C 31.582031 -35.910156 32.125 -34.484375 32.5 -32.859375 C 32.882812 -31.234375 33.148438 -29.628906 33.296875 -28.046875 C 33.453125 -26.472656 33.53125 -24.734375 33.53125 -22.828125 Z M 33.53125 -22.828125 "/></g></g><g style="fill:#ffffff;fill-opacity:1;"><g transform="translate(337.453533, 204.411212)"><path style="stroke:none" d="M 10.375 0 L 3.96875 0 L 3.96875 -42.71875 L 9.421875 -42.71875 L 27.125 -13.84375 L 27.125 -42.71875 L 33.53125 -42.71875 L 33.53125 0 C 33.53125 0 31.71875 0 28.09375 0 L 10.375 -28.921875 Z M 10.375 0 "/></g></g></g></svg>